<svg width="40" height="40" viewBox="0 0 40 40" fill="none" xmlns="http://www.w3.org/2000/svg">
<rect width="40" height="40" rx="20" fill="#E4F5EB"/>
<path d="M18.5 15.5V27.0986C18.5 27.2221 18.4695 27.3436 18.4113 27.4525C18.353 27.5614 18.2688 27.6542 18.166 27.7226L17.1355 28.4097C17.0355 28.4763 16.921 28.518 16.8015 28.5311C16.682 28.5443 16.5611 28.5285 16.449 28.4852C16.3369 28.4418 16.2369 28.3722 16.1573 28.2821C16.0778 28.192 16.021 28.0841 15.9919 27.9675L14.75 23" stroke="#0EC3A3" stroke-width="1.5" stroke-linecap="round" stroke-linejoin="round"/>
<path d="M14.75 23.0001C13.7554 23.0001 12.8016 22.605 12.0983 21.9017C11.3951 21.1985 11 20.2447 11 19.2501C11 18.2555 11.3951 17.3017 12.0983 16.5984C12.8016 15.8952 13.7554 15.5001 14.75 15.5001H18.5C18.5 15.5001 23.6048 15.5001 28.5173 11.38C28.6265 11.288 28.7598 11.2292 28.9013 11.2104C29.0429 11.1916 29.1869 11.2136 29.3164 11.2738C29.4458 11.334 29.5554 11.4299 29.6323 11.5503C29.7091 11.6707 29.7499 11.8105 29.75 11.9533V26.5469C29.7499 26.6897 29.7091 26.8295 29.6323 26.9499C29.5554 27.0702 29.4458 27.1662 29.3164 27.2264C29.1869 27.2866 29.0429 27.3086 28.9013 27.2898C28.7598 27.271 28.6265 27.2121 28.5173 27.1202C23.6048 23.0001 18.5 23.0001 18.5 23.0001H14.75Z" stroke="#0EC3A3" stroke-width="1.5" stroke-linecap="round" stroke-linejoin="round"/>
</svg>
