<svg width="32" height="32" viewBox="0 0 32 32" fill="none" xmlns="http://www.w3.org/2000/svg">
<path d="M9.26904 13.8246C9.2678 12.9352 9.44262 12.0542 9.78343 11.2326C10.1242 10.411 10.6243 9.66496 11.2548 9.03751C11.8853 8.41006 12.6337 7.9136 13.4569 7.57675C14.2802 7.23989 15.1619 7.06931 16.0514 7.07484C19.763 7.10243 22.7317 10.1875 22.7317 13.9094V14.5746C22.7317 17.9324 23.4342 19.8808 24.0529 20.9457C24.1196 21.0595 24.1551 21.1889 24.1558 21.3207C24.1565 21.4526 24.1224 21.5823 24.0569 21.6968C23.9915 21.8113 23.8971 21.9065 23.7831 21.9729C23.6691 22.0392 23.5397 22.0743 23.4078 22.0746H8.59222C8.46034 22.0743 8.33087 22.0392 8.21689 21.9728C8.1029 21.9065 8.00844 21.8113 7.94301 21.6967C7.87759 21.5822 7.84352 21.4525 7.84425 21.3206C7.84498 21.1887 7.88048 21.0593 7.94716 20.9456C8.56622 19.8806 9.26904 17.9322 9.26904 14.5746L9.26904 13.8246Z" stroke="#474F63" stroke-width="1.5" stroke-linecap="round" stroke-linejoin="round"/>
<path d="M13 22.0747V22.8247C13 23.6204 13.3161 24.3834 13.8787 24.946C14.4413 25.5086 15.2044 25.8247 16 25.8247C16.7956 25.8247 17.5587 25.5086 18.1213 24.946C18.6839 24.3834 19 23.6204 19 22.8247V22.0747" stroke="#474F63" stroke-width="1.5" stroke-linecap="round" stroke-linejoin="round"/>
<circle cx="22" cy="9.07471" r="3" fill="#117DF9"/>
</svg>
