<svg width="20" height="14" viewBox="0 0 20 14" fill="none" xmlns="http://www.w3.org/2000/svg">
<path d="M6.87525 9.54746C9.11884 9.54746 10.9376 7.72867 10.9376 5.48508C10.9376 3.24149 9.11884 1.4227 6.87525 1.4227C4.63166 1.4227 2.81287 3.24149 2.81287 5.48508C2.81287 7.72867 4.63166 9.54746 6.87525 9.54746Z" stroke="#B3B9C9" stroke-width="1.5" stroke-miterlimit="10"/>
<path d="M12.1416 1.57395C12.7004 1.41652 13.2863 1.38065 13.8601 1.46877C14.4339 1.55689 14.9821 1.76694 15.4679 2.08478C15.9537 2.40261 16.3657 2.82085 16.6762 3.31133C16.9867 3.80181 17.1885 4.35313 17.268 4.92817C17.3475 5.5032 17.3028 6.0886 17.137 6.64492C16.9712 7.20124 16.6881 7.71558 16.3068 8.15328C15.9255 8.59099 15.4548 8.9419 14.9265 9.18238C14.3981 9.42285 13.8244 9.54732 13.2439 9.54739" stroke="#B3B9C9" stroke-width="1.5" stroke-linecap="round" stroke-linejoin="round"/>
<path d="M1.25 12.4689C1.88446 11.5664 2.72675 10.8298 3.70575 10.3214C4.68475 9.81288 5.77172 9.54741 6.8749 9.54736C7.97808 9.54732 9.06507 9.81271 10.0441 10.3211C11.0232 10.8295 11.8655 11.566 12.5 12.4685" stroke="#B3B9C9" stroke-width="1.5" stroke-linecap="round" stroke-linejoin="round"/>
<path d="M13.2439 9.54737C14.3472 9.54657 15.4344 9.81163 16.4135 10.3201C17.3926 10.8286 18.2348 11.5655 18.8688 12.4685" stroke="#B3B9C9" stroke-width="1.5" stroke-linecap="round" stroke-linejoin="round"/>
</svg>
